{
    "asset" : {
        "generator" : "Khronos glTF Blender I/O v3.2.40",
        "version" : "2.0"
    },
    "scene" : 0,
    "scenes" : [
        {
            "name" : "Scene",
            "nodes" : [
                0
            ]
        }
    ],
    "nodes" : [
        {
            "mesh" : 0,
            "name" : "Text",
            "rotation" : [
                0.7071068286895752,
                0,
                0,
                0.7071068286895752
            ],
            "translation" : [
                -2.0024986267089844,
                0.027946075424551964,
                0.45508360862731934
            ]
        }
    ],
    "materials" : [
        {
            "doubleSided" : true,
            "name" : "Material.002",
            "pbrMetallicRoughness" : {
                "baseColorFactor" : [
                    0.00917915441095829,
                    0.8000000715255737,
                    0.6894670724868774,
                    1
                ],
                "metallicFactor" : 0,
                "roughnessFactor" : 0.4000000059604645
            }
        }
    ],
    "meshes" : [
        {
            "name" : "Text",
            "primitives" : [
                {
                    "attributes" : {
                        "POSITION" : 0,
                        "NORMAL" : 1,
                        "TEXCOORD_0" : 2
                    },
                    "indices" : 3,
                    "material" : 0
                }
            ]
        }
    ],
    "accessors" : [
        {
            "bufferView" : 0,
            "componentType" : 5126,
            "count" : 81400,
            "max" : [
                7.701696395874023,
                0.10999999940395355,
                0.09883205592632294
            ],
            "min" : [
                -0.1329907923936844,
                -0.10999999940395355,
                -0.7458799481391907
            ],
            "type" : "VEC3"
        },
        {
            "bufferView" : 1,
            "componentType" : 5126,
            "count" : 81400,
            "type" : "VEC3"
        },
        {
            "bufferView" : 2,
            "componentType" : 5126,
            "count" : 81400,
            "type" : "VEC2"
        },
        {
            "bufferView" : 3,
            "componentType" : 5125,
            "count" : 353820,
            "type" : "SCALAR"
        }
    ],
    "bufferViews" : [
        {
            "buffer" : 0,
            "byteLength" : 976800,
            "byteOffset" : 0
        },
        {
            "buffer" : 0,
            "byteLength" : 976800,
            "byteOffset" : 976800
        },
        {
            "buffer" : 0,
            "byteLength" : 651200,
            "byteOffset" : 1953600
        },
        {
            "buffer" : 0,
            "byteLength" : 1415280,
            "byteOffset" : 2604800
        }
    ],
    "buffers" : [
        {
            "byteLength" : 4020080,
            "uri" : "title.bin"
        }
    ]
}
