{
    "asset" : {
        "generator" : "Khronos glTF Blender I/O v3.2.40",
        "version" : "2.0"
    },
    "scene" : 0,
    "scenes" : [
        {
            "name" : "Scene",
            "nodes" : [
                0,
                1,
                2,
                3
            ]
        }
    ],
    "nodes" : [
        {
            "mesh" : 0,
            "name" : "Cube",
            "scale" : [
                4,
                0.699999988079071,
                0.5
            ],
            "translation" : [
                -0.0946681797504425,
                2.9177873134613037,
                0.04924900457262993
            ]
        },
        {
            "mesh" : 1,
            "name" : "Cone",
            "rotation" : [
                -1,
                0,
                0,
                4.371138828673793e-08
            ],
            "scale" : [
                0.9500000476837158,
                1,
                0.43000054359436035
            ],
            "translation" : [
                0.03448689356446266,
                1.168717384338379,
                -0.03829808533191681
            ]
        },
        {
            "mesh" : 2,
            "name" : "Text",
            "rotation" : [
                0.7071068286895752,
                0,
                0,
                0.7071067094802856
            ],
            "translation" : [
                -3.6089015007019043,
                2.651674509048462,
                0.6222043633460999
            ]
        },
        {
            "mesh" : 3,
            "name" : "Cone.003",
            "rotation" : [
                0,
                0,
                1,
                4.371138828673793e-08
            ],
            "scale" : [
                0.5,
                0.5,
                0.30000001192092896
            ],
            "translation" : [
                0.04329979792237282,
                0.48603057861328125,
                -0.02330966293811798
            ]
        }
    ],
    "materials" : [
        {
            "doubleSided" : true,
            "name" : "Material.001",
            "pbrMetallicRoughness" : {
                "baseColorFactor" : [
                    0.23743464052677155,
                    0.8000000715255737,
                    0.10153470188379288,
                    1
                ],
                "metallicFactor" : 0,
                "roughnessFactor" : 0.4000000059604645
            }
        },
        {
            "doubleSided" : true,
            "name" : "Material.004",
            "pbrMetallicRoughness" : {
                "baseColorFactor" : [
                    0.8000000715255737,
                    0.026099417358636856,
                    0.11589189618825912,
                    1
                ],
                "metallicFactor" : 0,
                "roughnessFactor" : 0.4000000059604645
            }
        },
        {
            "doubleSided" : true,
            "name" : "Material.005",
            "pbrMetallicRoughness" : {
                "baseColorFactor" : [
                    0.8000000715255737,
                    0.34823286533355713,
                    0.01739811897277832,
                    1
                ],
                "metallicFactor" : 0,
                "roughnessFactor" : 0.4000000059604645
            }
        }
    ],
    "meshes" : [
        {
            "name" : "Cube.001",
            "primitives" : [
                {
                    "attributes" : {
                        "POSITION" : 0,
                        "NORMAL" : 1,
                        "TEXCOORD_0" : 2
                    },
                    "indices" : 3,
                    "material" : 0
                }
            ]
        },
        {
            "name" : "Cone.001",
            "primitives" : [
                {
                    "attributes" : {
                        "POSITION" : 4,
                        "NORMAL" : 5,
                        "TEXCOORD_0" : 6
                    },
                    "indices" : 7,
                    "material" : 1
                }
            ]
        },
        {
            "name" : "Text.001",
            "primitives" : [
                {
                    "attributes" : {
                        "POSITION" : 8,
                        "NORMAL" : 9,
                        "TEXCOORD_0" : 10
                    },
                    "indices" : 11,
                    "material" : 2
                }
            ]
        },
        {
            "name" : "Cone.004",
            "primitives" : [
                {
                    "attributes" : {
                        "POSITION" : 12,
                        "NORMAL" : 13,
                        "TEXCOORD_0" : 14
                    },
                    "indices" : 7
                }
            ]
        }
    ],
    "accessors" : [
        {
            "bufferView" : 0,
            "componentType" : 5126,
            "count" : 24,
            "max" : [
                1,
                1,
                1
            ],
            "min" : [
                -1,
                -1,
                -1
            ],
            "type" : "VEC3"
        },
        {
            "bufferView" : 1,
            "componentType" : 5126,
            "count" : 24,
            "type" : "VEC3"
        },
        {
            "bufferView" : 2,
            "componentType" : 5126,
            "count" : 24,
            "type" : "VEC2"
        },
        {
            "bufferView" : 3,
            "componentType" : 5123,
            "count" : 36,
            "type" : "SCALAR"
        },
        {
            "bufferView" : 4,
            "componentType" : 5126,
            "count" : 148,
            "max" : [
                1,
                1,
                1
            ],
            "min" : [
                -1,
                -1,
                -1
            ],
            "type" : "VEC3"
        },
        {
            "bufferView" : 5,
            "componentType" : 5126,
            "count" : 148,
            "type" : "VEC3"
        },
        {
            "bufferView" : 6,
            "componentType" : 5126,
            "count" : 148,
            "type" : "VEC2"
        },
        {
            "bufferView" : 7,
            "componentType" : 5123,
            "count" : 186,
            "type" : "SCALAR"
        },
        {
            "bufferView" : 8,
            "componentType" : 5126,
            "count" : 7342,
            "max" : [
                7.039000034332275,
                0.10999998450279236,
                0.25498512387275696
            ],
            "min" : [
                0.02495945803821087,
                -0.10999998450279236,
                -0.7110365033149719
            ],
            "type" : "VEC3"
        },
        {
            "bufferView" : 9,
            "componentType" : 5126,
            "count" : 7342,
            "type" : "VEC3"
        },
        {
            "bufferView" : 10,
            "componentType" : 5126,
            "count" : 7342,
            "type" : "VEC2"
        },
        {
            "bufferView" : 11,
            "componentType" : 5123,
            "count" : 13452,
            "type" : "SCALAR"
        },
        {
            "bufferView" : 12,
            "componentType" : 5126,
            "count" : 148,
            "max" : [
                1,
                1,
                1
            ],
            "min" : [
                -1,
                -1,
                -1
            ],
            "type" : "VEC3"
        },
        {
            "bufferView" : 13,
            "componentType" : 5126,
            "count" : 148,
            "type" : "VEC3"
        },
        {
            "bufferView" : 14,
            "componentType" : 5126,
            "count" : 148,
            "type" : "VEC2"
        }
    ],
    "bufferViews" : [
        {
            "buffer" : 0,
            "byteLength" : 288,
            "byteOffset" : 0
        },
        {
            "buffer" : 0,
            "byteLength" : 288,
            "byteOffset" : 288
        },
        {
            "buffer" : 0,
            "byteLength" : 192,
            "byteOffset" : 576
        },
        {
            "buffer" : 0,
            "byteLength" : 72,
            "byteOffset" : 768
        },
        {
            "buffer" : 0,
            "byteLength" : 1776,
            "byteOffset" : 840
        },
        {
            "buffer" : 0,
            "byteLength" : 1776,
            "byteOffset" : 2616
        },
        {
            "buffer" : 0,
            "byteLength" : 1184,
            "byteOffset" : 4392
        },
        {
            "buffer" : 0,
            "byteLength" : 372,
            "byteOffset" : 5576
        },
        {
            "buffer" : 0,
            "byteLength" : 88104,
            "byteOffset" : 5948
        },
        {
            "buffer" : 0,
            "byteLength" : 88104,
            "byteOffset" : 94052
        },
        {
            "buffer" : 0,
            "byteLength" : 58736,
            "byteOffset" : 182156
        },
        {
            "buffer" : 0,
            "byteLength" : 26904,
            "byteOffset" : 240892
        },
        {
            "buffer" : 0,
            "byteLength" : 1776,
            "byteOffset" : 267796
        },
        {
            "buffer" : 0,
            "byteLength" : 1776,
            "byteOffset" : 269572
        },
        {
            "buffer" : 0,
            "byteLength" : 1184,
            "byteOffset" : 271348
        }
    ],
    "buffers" : [
        {
            "byteLength" : 272532,
            "uri" : "data:application/octet-stream;base64,"
        }
    ]
}
